<svg width="50" height="50" viewBox="0 0 50 50" fill="none" xmlns="http://www.w3.org/2000/svg">
<path d="M22.999 4.58008C22.999 4.71484 22.9756 4.85156 22.9258 4.98535L19.7197 13.6445C19.4961 14.249 18.8242 14.5576 18.2197 14.334C17.749 14.1602 17.458 13.7139 17.458 13.2402C17.458 13.1055 17.4814 12.9678 17.5313 12.834L20.7373 4.1748C20.9609 3.57031 21.6328 3.26172 22.2363 3.48535C22.707 3.65918 22.999 4.10547 22.999 4.58008Z" fill="#6F7408"/>
<path opacity="0.2" d="M22.999 4.58008C22.999 4.71484 22.9756 4.85156 22.9258 4.98535L19.7197 13.6445C19.4961 14.249 18.8242 14.5576 18.2197 14.334C18.168 14.3144 18.1182 14.292 18.0713 14.2666C18.3135 14.1377 18.5107 13.9219 18.6133 13.6445L21.8193 4.98535C21.8691 4.85156 21.8926 4.71484 21.8926 4.58008C21.8926 4.1582 21.6611 3.75781 21.2783 3.55273C21.5635 3.39941 21.9102 3.36426 22.2363 3.48535C22.707 3.65918 22.999 4.10547 22.999 4.58008Z" fill="black"/>
<path d="M32.4688 12.834C32.5186 12.9678 32.542 13.1055 32.542 13.2402C32.542 13.7139 32.251 14.1602 31.7803 14.334C31.1758 14.5576 30.5039 14.249 30.2803 13.6445L27.0742 4.98535C27.0244 4.85156 27.001 4.71484 27.001 4.58008C27.001 4.10547 27.293 3.65918 27.7637 3.48535C28.3672 3.26172 29.0391 3.57031 29.2627 4.1748L32.4688 12.834Z" fill="#6F7408"/>
<path d="M35.1191 23.3496H44.5342C45.207 23.3496 45.752 23.8945 45.752 24.5674V24.9736C45.752 25.6455 45.207 26.1914 44.5342 26.1914H44.1846H5.81445H5.46582C4.79297 26.1914 4.24805 25.6455 4.24805 24.9736V24.5674C4.24805 23.8945 4.79297 23.3496 5.46582 23.3496H14.8809H35.1191Z" fill="#977035"/>
<path opacity="0.2" d="M45.752 24.5674V24.9736C45.752 25.6455 45.207 26.1914 44.5342 26.1914H5.46582C4.79297 26.1914 4.24805 25.6455 4.24805 24.9736V24.5674C4.24805 24.3857 4.28809 24.2139 4.3584 24.0596C4.55078 24.4785 4.97363 24.7705 5.46582 24.7705H44.5342C45.0264 24.7705 45.4492 24.4785 45.6416 24.0596C45.7119 24.2139 45.752 24.3857 45.752 24.5674Z" fill="#977035"/>
<path d="M44.1846 26.1914L42.2002 44.5586C42.2002 45.6748 41.2871 46.5879 40.1709 46.5879H9.8291C8.71289 46.5879 7.7998 45.6748 7.7998 44.5586L5.81445 26.1914H44.1846Z" fill="#977035"/>
<path opacity="0.2" d="M44.1846 26.1914L42.2002 44.5586C42.2002 45.6748 41.2871 46.5879 40.1709 46.5879H9.8291C8.71289 46.5879 7.7998 45.6748 7.7998 44.5586L5.81445 26.1914H5.99414L7.7998 42.8984C7.7998 44.0146 8.71289 44.9277 9.8291 44.9277H40.1709C41.2871 44.9277 42.2002 44.0146 42.2002 42.8984L44.0049 26.1914H44.1846Z" fill="#977035"/>
<path opacity="0.2" d="M27.001 4.58008C27.001 4.71484 27.0244 4.85156 27.0742 4.98535L30.2803 13.6445C30.5039 14.249 31.1758 14.5576 31.7803 14.334C31.832 14.3144 31.8818 14.292 31.9287 14.2666C31.6865 14.1377 31.4893 13.9219 31.3867 13.6445L28.1807 4.98535C28.1309 4.85156 28.1074 4.71484 28.1074 4.58008C28.1074 4.1582 28.3389 3.75781 28.7217 3.55273C28.4365 3.39941 28.0898 3.36426 27.7637 3.48535C27.293 3.65918 27.001 4.10547 27.001 4.58008Z" fill="black"/>
<path d="M14.4843 24.8116C14.4393 24.8116 14.3935 24.8038 14.3487 24.7872C14.1464 24.7123 14.0431 24.4876 14.118 24.2853L17.8533 14.1982C17.9283 13.9959 18.153 13.8927 18.3553 13.9676C18.5576 14.0425 18.6608 14.2672 18.5859 14.4695L14.8506 24.5563C14.7924 24.7141 14.6431 24.8116 14.4843 24.8116Z" fill="#303C44"/>
<path d="M35.5156 24.8116C35.3568 24.8116 35.2076 24.7141 35.1493 24.5564L31.414 14.4696C31.339 14.2673 31.4423 14.0426 31.6445 13.9677C31.847 13.8927 32.0717 13.996 32.1466 14.1983L35.8819 24.2853C35.9569 24.4877 35.8535 24.7124 35.6513 24.7873C35.6064 24.8038 35.5607 24.8116 35.5156 24.8116Z" fill="#303C44"/>
<path d="M25 44.0352C24.7843 44.0352 24.6094 43.8603 24.6094 43.6445V29.1338C24.6094 28.9181 24.7843 28.7432 25 28.7432C25.2157 28.7432 25.3906 28.9181 25.3906 29.1338V43.6445C25.3906 43.8603 25.2157 44.0352 25 44.0352Z" fill="#EAE100"/>
<path d="M29.1621 44.0352C28.9464 44.0352 28.7715 43.8603 28.7715 43.6445V29.1338C28.7715 28.9181 28.9464 28.7432 29.1621 28.7432C29.3778 28.7432 29.5527 28.9181 29.5527 29.1338V43.6445C29.5527 43.8603 29.3778 44.0352 29.1621 44.0352Z" fill="#EAE100"/>
<path d="M33.3232 44.0352C33.1075 44.0352 32.9326 43.8603 32.9326 43.6445V29.1338C32.9326 28.9181 33.1075 28.7432 33.3232 28.7432C33.539 28.7432 33.7139 28.9181 33.7139 29.1338V43.6445C33.7139 43.8603 33.539 44.0352 33.3232 44.0352Z" fill="#EAE100"/>
<path d="M37.4854 44.0352C37.2696 44.0352 37.0947 43.8603 37.0947 43.6445V29.1338C37.0947 28.9181 37.2696 28.7432 37.4854 28.7432C37.7011 28.7432 37.876 28.9181 37.876 29.1338V43.6445C37.876 43.8603 37.7011 44.0352 37.4854 44.0352Z" fill="#EAE100"/>
<path d="M12.5146 44.0352C12.2989 44.0352 12.124 43.8603 12.124 43.6445V29.1338C12.124 28.9181 12.2989 28.7432 12.5146 28.7432C12.7304 28.7432 12.9053 28.9181 12.9053 29.1338V43.6445C12.9053 43.8603 12.7304 44.0352 12.5146 44.0352Z" fill="#EAE100"/>
<path d="M16.6768 44.0352C16.461 44.0352 16.2861 43.8603 16.2861 43.6445V29.1338C16.2861 28.9181 16.461 28.7432 16.6768 28.7432C16.8925 28.7432 17.0674 28.9181 17.0674 29.1338V43.6445C17.0674 43.8603 16.8925 44.0352 16.6768 44.0352Z" fill="#EAE100"/>
<path d="M20.8379 44.0352C20.6222 44.0352 20.4473 43.8603 20.4473 43.6445V29.1338C20.4473 28.9181 20.6222 28.7432 20.8379 28.7432C21.0536 28.7432 21.2285 28.9181 21.2285 29.1338V43.6445C21.2285 43.8603 21.0536 44.0352 20.8379 44.0352Z" fill="#EAE100"/>
</svg>
