<svg width="20" height="20" viewBox="0 0 20 20" fill="none" xmlns="http://www.w3.org/2000/svg">
<path d="M11.4 10L16.3 5.1C16.4825 4.91371 16.5842 4.6629 16.5829 4.40207C16.5816 4.14124 16.4774 3.89147 16.2929 3.70703C16.1085 3.5226 15.8587 3.4184 15.5979 3.41708C15.3371 3.41576 15.0863 3.51743 14.9 3.7L9.99998 8.6L5.09998 3.7C4.91369 3.51743 4.66288 3.41576 4.40205 3.41708C4.14122 3.4184 3.89145 3.5226 3.70702 3.70703C3.52258 3.89147 3.41838 4.14124 3.41707 4.40207C3.41575 4.6629 3.51742 4.91371 3.69998 5.1L8.59998 10L3.69998 14.9C3.51742 15.0863 3.41575 15.3371 3.41707 15.5979C3.41838 15.8588 3.52258 16.1085 3.70702 16.293C3.89145 16.4774 4.14122 16.5816 4.40205 16.5829C4.66288 16.5842 4.91369 16.4826 5.09998 16.3L9.99998 11.4L14.9 16.3C15.0863 16.4826 15.3371 16.5842 15.5979 16.5829C15.8587 16.5816 16.1085 16.4774 16.2929 16.293C16.4774 16.1085 16.5816 15.8588 16.5829 15.5979C16.5842 15.3371 16.4825 15.0863 16.3 14.9L11.4 10Z" fill="#362917"/>
</svg>
