<svg width="125" height="125" viewBox="0 0 125 125" fill="none" xmlns="http://www.w3.org/2000/svg">
<path d="M92.0991 8.44914C92.0991 8.44914 84.0092 28.7339 85.8368 32.3582C82.1303 26.2428 76.1531 27.8973 76.0569 25.4386C75.9599 22.9498 74.0161 21.9761 74.0161 21.9761C73.4327 25.1141 76.543 32.0395 77.8069 33.9873C79.0707 35.9351 69.932 36.4761 68.7653 34.4202C66.3349 34.2041 63.4182 30.7411 64.4876 33.4464C65.2362 35.34 67.2249 38.394 69.6836 40.171C65.8785 43.2162 62.726 47.0926 60.8371 51.46C55.8297 48.9101 49.7117 49.0238 43.8982 51.0175C44.2192 47.7804 43.2847 44.1265 42.4083 42.3242C41.1907 39.82 41.8272 44.3691 40.5284 46.6043C41.2431 48.8146 35.4309 56.4296 34.8483 54.1981C34.2656 51.9664 31.3718 45.2314 28.8733 43.9092C28.8733 43.9092 28.3827 46.1644 30.0309 47.6987C31.659 49.2146 26.9655 53.4377 28.9506 60.2172C27.5546 56.5201 8.8402 51.7223 8.83503 51.721C8.83503 51.721 6.48589 56.0022 10.5219 55.4256C14.5578 54.8489 27.3097 63.8169 25.9565 63.7353C24.6033 63.6535 22.5511 68.1861 20.5504 70.7597C18.5498 73.3335 14.1222 75.8499 15.4174 76.0158C16.7127 76.182 18.6436 76.6204 19.8158 76.2805C20.9881 75.9414 22.5057 76.293 22.5057 76.293C22.5057 76.293 22.5087 76.9417 22.5087 77.0341C20.4485 89.1354 23.9209 102.324 34.421 107.038C59.352 118.23 75.6488 118.515 82.3006 113.182C84.5022 114.865 86.6369 115.568 88.7361 115.464C97.0613 115.049 108.166 99.9498 116.146 67.0001C119.086 54.8603 112.349 43.7482 102.896 37.7846C102.507 37.4438 101.528 36.5801 101.528 36.5801C101.528 36.5801 102.209 34.9571 103.181 34.0915C104.153 33.2258 105.028 31.1696 105.709 29.8711C106.389 28.5726 101.82 31.0615 98.709 31.2779C95.598 31.494 91.0283 30.5203 90.2505 31.8188C89.4727 33.1173 90.8338 15.6963 93.7504 12.3417C96.667 8.98724 92.0984 8.44547 92.0984 8.44547L92.0991 8.44914ZM43.1844 51.2786C42.995 51.3488 42.8044 51.4186 42.6155 51.493C42.8043 51.4186 42.9946 51.3488 43.1844 51.2786ZM41.9063 51.7848C41.708 51.8683 41.5108 51.9531 41.314 52.0404C41.511 51.9527 41.7083 51.8683 41.9063 51.7848ZM40.6697 52.3364C40.4397 52.4448 40.2112 52.5587 39.9832 52.6734C40.211 52.5587 40.4396 52.4457 40.6697 52.3364ZM39.4162 52.96C39.1283 53.1112 38.8438 53.2708 38.56 53.4307C38.844 53.2699 39.1284 53.1112 39.4162 52.96ZM37.8829 53.8238C37.6018 53.9916 37.3213 54.1608 37.0446 54.3374C37.3216 54.1612 37.6015 53.9917 37.8829 53.8238ZM36.5078 54.6908C36.2831 54.84 36.0585 54.9904 35.8372 55.1457C36.0584 54.9907 36.2828 54.8407 36.5078 54.6908ZM35.3145 55.52C35.0997 55.6766 34.8878 55.837 34.6769 55.9991C34.8879 55.8378 35.0997 55.6762 35.3145 55.52ZM34.1692 56.3921C33.9344 56.5791 33.7045 56.7715 33.4751 56.9655C33.7045 56.7723 33.9345 56.579 34.1692 56.3921ZM33.0871 57.2915C32.7404 57.5936 32.4 57.9023 32.0671 58.2182C32.4 57.9019 32.7403 57.5934 33.0871 57.2915ZM31.7242 58.5557C31.4945 58.7809 31.2666 59.0069 31.0443 59.2382C31.2663 59.0067 31.4945 58.7805 31.7242 58.5557ZM30.6723 59.6355C30.4657 59.8586 30.2624 60.0842 30.0629 60.3127C30.2625 60.0846 30.4654 59.8583 30.6723 59.6355ZM29.7153 60.7162C29.5065 60.9643 29.3032 61.2158 29.1032 61.4699C29.3034 61.2156 29.5065 60.9641 29.7153 60.7162ZM28.8272 61.819C28.5394 62.1963 28.2598 62.5776 27.9927 62.9669C27.7338 63.3446 27.4845 63.7328 27.2411 64.1262C27.4842 63.7327 27.7336 63.3445 27.9927 62.9669C28.2599 62.5775 28.5395 62.196 28.8272 61.819ZM27.1037 64.3495C26.8743 64.7276 26.6524 65.1127 26.4378 65.5037C26.6523 65.1126 26.8745 64.7275 27.1037 64.3495ZM26.2955 65.7678C26.0925 66.146 25.8962 66.5282 25.7069 66.9167C25.8957 66.5278 26.093 66.1457 26.2955 65.7678ZM25.5685 67.2092C25.419 67.5226 25.2756 67.84 25.1352 68.1601C25.2752 67.8397 25.4195 67.5231 25.5685 67.2092ZM24.928 68.6391C24.7845 68.9803 24.6472 69.3247 24.5136 69.6717C24.6465 69.3247 24.7852 68.9803 24.928 68.6391ZM24.2762 70.309C24.2026 70.5122 24.1324 70.7158 24.0623 70.9202C24.1324 70.7157 24.2026 70.5117 24.2762 70.309ZM23.6707 72.1288C23.6386 72.2231 23.6123 72.3183 23.5841 72.4134C23.6094 72.3183 23.6418 72.224 23.6707 72.1288Z" stroke="#F3E9E9" stroke-width="5.09291" stroke-linecap="round" stroke-linejoin="round"/>
<path d="M35.5549 105.244C61.7888 117.021 78.0661 116.217 83.0955 109.515C88.1608 102.766 85.0881 88.3376 67.6693 58.4372C59.2458 43.9779 38.2532 50.0234 29.3851 62.9487C20.5169 75.8742 21.2091 98.8041 35.5549 105.244Z" fill="#E01D25"/>
<path d="M11 52.156C11 52.156 28.9652 56.7611 30.305 60.3095C28.4 53.8036 32.9036 49.7511 31.3411 48.2964C29.7595 46.8239 30.2302 44.66 30.2302 44.66C32.6278 45.9288 35.4056 52.3916 35.9647 54.5332C36.5238 56.6747 42.1013 49.3667 41.4155 47.2457C42.6618 45.1007 42.0506 40.7357 43.219 43.1388C44.06 44.8684 44.9571 48.3751 44.6489 51.4815C38.6596 53.5356 33.0098 57.6659 29.3852 62.9486C26.7458 66.7956 24.961 71.5302 24.1233 76.4511C24.1235 76.3626 24.1202 75.7397 24.1202 75.7397C24.1202 75.7397 22.6637 75.3986 21.5388 75.7273C20.4139 76.0531 18.5613 75.6321 17.3183 75.4726C16.0753 75.3134 20.3237 72.899 22.2436 70.4291C24.1635 67.9594 26.1332 63.6101 27.4318 63.6884C28.7303 63.7665 16.4931 55.1599 12.62 55.7133C8.74701 56.2666 11.0014 52.1582 11.0014 52.1582L11 52.156Z" fill="#47B049"/>
<path d="M46.7899 91.0214C57.7223 100.314 73.0615 106.228 77.9465 105.052C75.5102 97.6531 69.1495 83.6584 58.217 74.3663C47.2846 65.0742 35.864 61.2697 32.7085 65.869C29.553 70.4681 35.8574 81.7292 46.7899 91.0214Z" fill="#ED9073"/>
<path d="M50.7068 91.2902C59.1013 98.4252 70.8796 102.967 74.6307 102.064C72.76 96.3823 67.8758 85.6364 59.4812 78.5013C51.0867 71.3664 42.3173 68.4452 39.8943 71.9767C37.4713 75.5082 42.3122 84.1552 50.7068 91.2902Z" fill="#EB5640"/>
<path d="M50.7068 91.2902C59.1013 98.4252 70.8796 102.967 74.6307 102.064C72.76 96.3823 67.8758 85.6364 59.4812 78.5013C51.0867 71.3664 42.3173 68.4452 39.8943 71.9767C37.4713 75.5082 42.3122 84.1552 50.7068 91.2902Z" fill="#EB5640"/>
<path d="M42.8539 76.7999C40.5108 74.8084 38.5466 71.6121 38.4893 70.4214C40.0013 70.5648 42.96 71.2387 45.3031 73.2302C47.6462 75.2218 48.9974 77.6354 48.3211 78.6211C47.6448 79.6068 45.1971 78.7915 42.8539 76.7999Z" fill="#ED9073"/>
<path d="M113.981 66.8218C106.323 98.4418 95.6674 112.932 87.6781 113.33C79.6318 113.73 71.0306 101.777 60.0433 66.8218C54.73 49.9181 72.1177 34.3959 87.0123 34.3959C101.907 34.3959 118.169 49.5306 113.981 66.8218Z" fill="#E01D25"/>
<path d="M82.3207 44.899C82.3207 44.899 78.4023 48.949 79.7084 53.9332C81.0146 58.9177 83.0671 59.5407 83.0671 59.5407C83.0671 59.5407 82.5073 57.8793 82.8808 56.114C83.2541 54.3486 86.9858 50.5065 88.1987 48.1182C89.4116 45.7298 92.9567 51.5449 95.5691 52.1679C97.9948 52.3753 104.899 54.4525 102.66 52.1679C100.421 49.8835 98.9278 47.5989 97.7149 45.5221C96.5021 43.4453 96.4088 44.6913 101.074 45.3147C105.738 45.9378 107.045 47.807 108.537 48.5339C110.03 49.2608 108.911 46.0416 108.071 45.0032C107.231 43.9648 99.954 37.6304 99.954 37.6304C99.954 37.6304 100.607 36.0728 101.54 35.2421C102.473 34.4113 103.313 32.4383 103.966 31.1922C104.619 29.9461 100.234 32.3345 97.2484 32.5421C94.263 32.7495 89.878 31.8153 89.1316 33.0613C88.3852 34.3075 89.6914 17.589 92.4903 14.3699C95.2892 11.1508 90.9043 10.6315 90.9043 10.6315C90.9043 10.6315 82.7874 30.9845 85.0266 33.7883C81.4813 27.6616 75.6037 29.3232 75.5102 26.9348C75.4169 24.5464 73.551 23.6119 73.551 23.6119C72.9913 26.6233 75.9768 33.269 77.1897 35.1383C78.4025 37.0074 69.6326 37.5266 68.513 35.5538C66.1806 35.3465 63.3817 32.0231 64.4079 34.6192C65.4342 37.2152 68.8862 42.0959 72.6181 42.4074C76.35 42.719 69.1662 44.2764 67.86 48.534C66.5538 52.7915 67.3001 55.3876 69.9125 51.8569C74.2974 50.7146 82.321 44.8995 82.321 44.8995L82.3207 44.899Z" fill="#47B049"/>
<path d="M68.1424 61.8383C68.1424 62.9853 67.4641 63.7316 67.2344 64.6126C66.6419 63.8049 65.9966 62.9853 65.9966 61.8383C65.9966 60.6913 66.4769 59.7615 67.0695 59.7615C67.662 59.7615 68.1424 60.6913 68.1424 61.8383Z" fill="white"/>
<path d="M108.912 59.4887C108.912 60.6355 108.234 61.3818 108.004 62.2629C107.412 61.4553 106.767 60.6355 106.767 59.4887C106.767 58.3416 107.247 57.4117 107.839 57.4117C108.432 57.4117 108.912 58.3416 108.912 59.4887Z" fill="white"/>
<path d="M93.4752 62.4257C93.4752 63.5727 92.797 64.319 92.5672 65.2001C91.9747 64.3924 91.3294 63.5727 91.3294 62.4257C91.3294 61.2787 91.8097 60.3488 92.4023 60.3488C92.9948 60.3488 93.4752 61.2787 93.4752 62.4257Z" fill="white"/>
<path d="M79.2255 63.0131C79.2255 64.1602 78.5472 64.9064 78.3175 65.7875C77.725 64.9798 77.0797 64.1602 77.0797 63.0131C77.0797 61.8661 77.56 60.9362 78.1526 60.9362C78.7451 60.9362 79.2255 61.8661 79.2255 63.0131Z" fill="white"/>
<path d="M68.1424 75.0552C68.1424 76.2022 67.4641 76.9485 67.2344 77.8296C66.6419 77.0219 65.9966 76.2022 65.9966 75.0552C65.9966 73.9081 66.4769 72.9783 67.0695 72.9783C67.662 72.9783 68.1424 73.9081 68.1424 75.0552Z" fill="white"/>
<path d="M85.2949 74.3209C85.2949 75.4679 84.6165 76.2141 84.3868 77.0953C83.7943 76.2875 83.149 75.4679 83.149 74.3209C83.149 73.1739 83.6294 72.2441 84.2219 72.2441C84.8144 72.2441 85.2949 73.1739 85.2949 74.3209Z" fill="white"/>
<path d="M101.392 72.5587C101.392 73.7057 100.713 74.452 100.484 75.3331C99.8911 74.5253 99.2459 73.7057 99.2459 72.5587C99.2459 71.4117 99.7262 70.4818 100.319 70.4818C100.911 70.4818 101.392 71.4117 101.392 72.5587Z" fill="white"/>
<path d="M111.947 70.5026C111.947 71.6497 111.269 72.396 111.039 73.2771C110.447 72.4694 109.801 71.6497 109.801 70.5026C109.801 69.3556 110.282 68.4259 110.874 68.4259C111.467 68.4259 111.947 69.3556 111.947 70.5026Z" fill="white"/>
<path d="M104.163 82.8385C104.163 83.9855 103.484 84.7317 103.254 85.6129C102.662 84.8052 102.017 83.9855 102.017 82.8385C102.017 81.6915 102.497 80.7617 103.09 80.7617C103.682 80.7617 104.163 81.6915 104.163 82.8385Z" fill="white"/>
<path d="M92.0238 83.8665C92.0238 85.0134 91.3456 85.7597 91.1159 86.6409C90.5233 85.8331 89.878 85.0134 89.878 83.8665C89.878 82.7195 90.3584 81.7897 90.9509 81.7897C91.5435 81.7897 92.0238 82.7195 92.0238 83.8665Z" fill="white"/>
<path d="M73.4201 82.5448C73.4201 83.6918 72.7418 84.4381 72.5121 85.3192C71.9195 84.5115 71.2742 83.6918 71.2742 82.5448C71.2742 81.3978 71.7546 80.4679 72.3471 80.4679C72.9397 80.4679 73.4201 81.3978 73.4201 82.5448Z" fill="white"/>
<path d="M82.1282 90.6217C82.1282 91.7687 81.4499 92.5151 81.2202 93.3962C80.6277 92.5885 79.9824 91.7687 79.9824 90.6217C79.9824 89.4747 80.4627 88.5449 81.0553 88.5449C81.6478 88.5449 82.1282 89.4747 82.1282 90.6217Z" fill="white"/>
<path d="M99.6764 92.2372C99.6764 93.3842 98.9982 94.1304 98.7685 95.0115C98.176 94.2038 97.5306 93.3842 97.5306 92.2372C97.5306 91.0902 98.011 90.1603 98.6035 90.1603C99.1961 90.1603 99.6764 91.0902 99.6764 92.2372Z" fill="white"/>
<path d="M89.9128 97.0833C89.9128 98.2303 89.2345 98.9766 89.0048 99.8578C88.4123 99.0501 87.767 98.2303 87.767 97.0833C87.767 95.9363 88.2473 95.0065 88.8399 95.0065C89.4324 95.0065 89.9128 95.9363 89.9128 97.0833Z" fill="white"/>
<path d="M79.2255 98.8456C79.2255 99.9926 78.5472 100.739 78.3175 101.62C77.725 100.812 77.0797 99.9926 77.0797 98.8456C77.0797 97.6986 77.56 96.7689 78.1526 96.7689C78.7451 96.7689 79.2255 97.6986 79.2255 98.8456Z" fill="white"/>
<path d="M96.7738 102.37C96.7738 103.517 96.0955 104.263 95.8657 105.144C95.2732 104.337 94.6279 103.517 94.6279 102.37C94.6279 101.223 95.1083 100.293 95.7008 100.293C96.2934 100.293 96.7738 101.223 96.7738 102.37Z" fill="white"/>
<path d="M86.7462 105.16C86.7462 106.307 86.0679 107.054 85.8381 107.935C85.2456 107.127 84.6003 106.307 84.6003 105.16C84.6003 104.013 85.0807 103.083 85.6732 103.083C86.2658 103.083 86.7462 104.013 86.7462 105.16Z" fill="white"/>
</svg>
