<svg width="125" height="125" viewBox="0 0 125 125" fill="none" xmlns="http://www.w3.org/2000/svg">
<path d="M82.6504 77.0039C77.7295 90.8887 68.7139 104.753 58.4014 104.753C53.9492 104.753 49.7412 103.717 45.998 101.882C45.2236 101.503 44.3184 101.503 43.5449 101.882C39.8008 103.717 35.5938 104.753 31.1416 104.753C15.5605 104.753 2.92969 73.1045 2.92969 57.5557C2.92969 42.0068 15.5605 29.4023 31.1406 29.4023C35.5938 29.4023 39.8008 30.4385 43.5449 32.2734C44.3184 32.6523 45.2236 32.6523 45.9971 32.2734C49.7412 30.4385 53.9482 29.4023 58.4014 29.4023C58.8389 29.4023 59.2744 29.4121 59.707 29.4316C71.9385 29.9883 82.0146 39.3428 84.3701 51.5244C85.6172 57.9707 85.9004 66.7256 82.6504 77.0039Z" fill="#DF2B2B"/>
<path d="M46.1885 10.2197C43.2021 14.9033 42.8349 20.3779 44.6738 25.1416C50 24.4346 54.956 21.5586 57.9414 16.875C60.9267 12.1914 61.2949 6.7168 59.456 1.95312C54.1299 2.66016 49.1738 5.53613 46.1885 10.2197Z" fill="#286F0D"/>
<path d="M45.0742 33.4844C43.9961 33.4844 43.1211 32.6094 43.1211 31.5312V28.6172C43.1211 24.3096 41 20.3349 37.4463 17.9853C36.5469 17.3906 36.2998 16.1787 36.8945 15.2793C37.4902 14.3799 38.7031 14.1328 39.6006 14.7275C44.251 17.8027 47.0264 22.9951 47.0264 28.6182V31.5322C47.0273 32.6094 46.1533 33.4844 45.0742 33.4844Z" fill="#63271D"/>
<path d="M22.9531 57.5557C22.9531 45.5322 30.5088 35.2744 41.1367 31.2393C38.0283 30.0596 34.6631 29.4023 31.1396 29.4023C15.5605 29.4014 2.92969 42.0068 2.92969 57.5557C2.92969 73.1045 15.5605 104.753 31.1406 104.753C35.4688 104.753 39.5615 103.768 43.2246 102.028C31.5117 94.0381 22.9531 70.3525 22.9531 57.5557Z" fill="#D1262C"/>
<path d="M12.9414 57.5557C12.9414 43.71 22.96 32.2061 36.1553 29.8516C34.5273 29.5586 32.8525 29.4023 31.1406 29.4023C15.5605 29.4014 2.92969 42.0068 2.92969 57.5557C2.92969 73.1045 15.5605 104.753 31.1406 104.753C33.2402 104.753 35.2822 104.515 37.25 104.079C23.5176 99.4697 12.9414 71.7822 12.9414 57.5557Z" fill="#B7252C"/>
<path d="M28.75 41.6699C29.8556 41.6699 30.752 40.7662 30.752 39.6514C30.752 38.5366 29.8556 37.6328 28.75 37.6328C27.6444 37.6328 26.748 38.5366 26.748 39.6514C26.748 40.7662 27.6444 41.6699 28.75 41.6699Z" fill="#EDA07A"/>
<path d="M20.0898 59.6426C21.1955 59.6426 22.0918 58.7388 22.0918 57.624C22.0918 56.5092 21.1955 55.6055 20.0898 55.6055C18.9842 55.6055 18.0879 56.5092 18.0879 57.624C18.0879 58.7388 18.9842 59.6426 20.0898 59.6426Z" fill="#FCBEBE"/>
<path d="M102.615 122.261C113.328 120.133 121.555 111.031 122.044 99.9824C122.062 99.5918 122.07 99.1982 122.07 98.8027C122.07 94.7803 121.159 90.9795 119.546 87.5977C119.42 87.333 119.356 87.0498 119.326 86.7646H58.5498C58.5195 87.0508 58.4863 87.3506 58.3301 87.5986C56.1523 91.0644 56.1523 94.7939 56.1523 98.8164C56.1523 108.132 67.998 116.263 80.209 120.707C89.2481 123.643 96.9463 123.387 102.615 122.261Z" fill="#FFF5CA"/>
<path d="M88.5977 100.003C96.0293 100.003 102.055 94.0762 102.055 86.7646H75.1406C75.1406 94.0752 81.165 100.003 88.5977 100.003Z" fill="#EAD991"/>
<path d="M89.9844 95.3369C89.9834 95.3369 89.9834 95.3369 89.9844 95.3369L87.21 95.3359C86.1318 95.3359 85.2568 94.4609 85.2578 93.3818C85.2578 92.3037 86.1328 91.4297 87.2109 91.4297C87.2109 91.4297 87.2109 91.4297 87.2119 91.4297L89.9853 91.4307C91.0635 91.4307 91.9385 92.3057 91.9375 93.3848C91.9365 94.4629 91.0625 95.3369 89.9844 95.3369Z" fill="#582612"/>
<path d="M102.615 115.196C96.9463 116.322 89.248 116.578 80.208 113.643C69.2168 109.642 58.3467 102.604 56.2637 94.4521C56.0303 95.8535 55.8047 97.332 55.8047 98.8027C55.8047 108.118 67.9971 116.262 80.208 120.707C89.2471 123.643 96.9453 123.387 102.615 122.261C113.328 120.133 121.555 111.031 122.044 99.9824C122.062 99.5918 122.07 99.1982 122.07 98.8027C122.07 97.5879 121.978 96.3955 121.817 95.2256C120.371 105.215 112.571 113.219 102.615 115.196Z" fill="#D1262C"/>
</svg>
