<svg width="125" height="125" viewBox="0 0 125 125" fill="none" xmlns="http://www.w3.org/2000/svg">
<g clip-path="url(#clip0_7_34)">
<path d="M34.4482 69.3603C55.0537 75.8057 90.918 72.583 98.1445 38.8916C98.0224 38.7939 94.3115 34.082 92.0654 35.6445C92.0654 35.6445 91.0889 36.4746 90.6982 36.9873C89.4531 38.7451 90.0146 37.9639 90.0146 37.9639C56.1523 71.9971 15.6738 42.1875 11.2061 41.0644C7.05566 40.0146 3.58887 38.1348 3.10059 37.8662L2.36816 45.5078C5.15137 49.4141 16.2842 63.6963 34.4482 69.3603Z" fill="#E7E23A"/>
<path d="M105.176 46.875C105.127 44.458 105.127 42.2119 105.176 40.0635L98.169 38.8916C98.169 38.8916 98.169 38.8916 98.1445 38.8916C90.918 72.583 55.0537 75.8057 34.4482 69.3603C16.3086 63.6719 5.15137 49.4141 2.39258 45.5078L2.22168 45.752L0.195312 48.6084C0.317383 49.4385 0.41504 50.3906 0.463868 51.416C0.634766 55.3223 18.8965 86.0107 69.2383 79.9072C69.2383 79.9072 105.688 74.9023 105.176 46.875Z" fill="#D0CA3D"/>
<path d="M2.24609 45.3613L3.07617 37.8906C3.02734 37.8662 2.97852 37.8418 2.97852 37.8418L0.0976575 44.5068C0.0976575 44.5068 -0.219726 46.2891 0.146485 48.6328L2.17285 45.7764L2.24609 45.3613Z" fill="#B3AA48"/>
<path d="M2.36816 45.5078L3.10059 37.8662L2.27051 45.3369C2.27051 45.4102 2.34375 45.459 2.36816 45.5078Z" fill="#B3AA48"/>
<path d="M2.19727 45.7519L2.36816 45.5078C2.34375 45.459 2.27051 45.3857 2.24609 45.3369L2.19727 45.7519Z" fill="#B3AA48"/>
<path d="M98.1445 38.8916C98.3154 38.0859 98.4863 37.2559 98.6328 36.4258C99.6094 30.4688 100.61 25.6592 101.611 21.7285C100.195 21.2891 98.7549 20.8984 97.3389 20.5078C93.3105 34.9365 90.9424 36.6943 90.9424 36.6943C93.1885 35.1318 98.0224 38.7939 98.1445 38.8916Z" fill="#D0C66A"/>
<path d="M101.611 21.7285C100.61 25.6836 99.6094 30.4688 98.6328 36.4258C98.4863 37.2803 98.3154 38.0859 98.1445 38.8916H98.1689L105.176 40.0635C105.298 33.1055 105.786 27.5879 106.47 23.2178C104.858 22.7295 103.223 22.2168 101.611 21.7285Z" fill="#B3AA48"/>
<path d="M68.4082 96.4599C90.21 92.0898 121.021 71.3867 110.84 37.3779C110.669 37.3535 104.98 34.9365 103.735 37.4512C103.735 37.4512 103.247 38.6719 103.174 39.3555C102.905 41.5527 103.027 40.5762 103.027 40.5762C89.3311 88.0615 37.9883 81.2012 33.3984 82.4219C29.126 83.5449 25.0732 83.5693 24.4873 83.5693L27.6123 90.8203C32.0801 92.9443 49.2188 100.317 68.4082 96.4599Z" fill="#E7E23A"/>
<path d="M121.167 41.0889C119.922 38.916 118.823 36.8896 117.798 34.9609L110.889 37.3535H110.864C121.045 71.3623 90.2344 92.0654 68.4326 96.4355C49.2432 100.293 32.1045 92.9199 27.6611 90.7715L27.6367 91.0644L27.1973 94.6533C27.7344 95.3369 28.2959 96.1426 28.833 97.0459C30.9326 100.488 62.6221 119.141 105.078 88.6963C105.054 88.7451 135.498 66.1377 121.167 41.0889Z" fill="#D0CA3D"/>
<path d="M27.4414 90.6982L24.5117 83.5449C24.4629 83.5449 24.3896 83.5449 24.3896 83.5449L25.0977 90.9912C25.0977 90.9912 25.6836 92.749 27.1729 94.6777L27.6123 91.0889L27.4414 90.6982Z" fill="#B3AA48"/>
<path d="M27.6367 90.7959L24.5117 83.5449L27.4414 90.6982C27.4902 90.7227 27.5879 90.7715 27.6367 90.7959Z" fill="#B3AA48"/>
<path d="M27.6123 91.0889L27.6367 90.7959C27.5879 90.7715 27.4902 90.7227 27.4414 90.6982L27.6123 91.0889Z" fill="#B3AA48"/>
<path d="M110.864 37.3779C110.62 36.5479 110.376 35.7422 110.083 34.8877C108.008 29.0283 106.543 24.1943 105.493 20.1416C104.004 20.459 102.515 20.8008 101.025 21.1426C104.517 36.1572 103.271 38.916 103.271 38.916C104.517 36.4258 110.693 37.3291 110.864 37.3779Z" fill="#D0C66A"/>
<path d="M105.469 20.1416C106.519 24.1943 108.008 29.0283 110.059 34.8877C110.352 35.7178 110.596 36.5479 110.84 37.3779H110.864L117.773 34.9853C114.429 28.6377 112.134 23.4131 110.596 19.1406C108.887 19.4336 107.178 19.7754 105.469 20.1416Z" fill="#B3AA48"/>
</g>
<defs>
<clipPath id="clip0_7_34">
<rect width="125" height="125" fill="white"/>
</clipPath>
</defs>
</svg>
