<svg width="125" height="125" viewBox="0 0 125 125" fill="none" xmlns="http://www.w3.org/2000/svg">
<path d="M39.7608 9.96582C36.8565 14.5059 36.499 19.8115 38.2881 24.4297C43.4688 23.7451 48.2881 20.957 51.1924 16.417C54.0967 11.877 54.4541 6.57031 52.6651 1.95312C47.4854 2.6377 42.6651 5.42578 39.7608 9.96582Z" fill="#286F0D"/>
<path d="M38.6777 33.5527C37.5996 33.5527 36.7246 32.6777 36.7246 31.5996V27.7959C36.7246 23.6426 34.6709 19.8096 31.2315 17.543C30.3311 16.9502 30.082 15.7383 30.6758 14.8369C31.2686 13.9375 32.4805 13.6875 33.3818 14.2813C37.9209 17.2725 40.6309 22.3242 40.6309 27.7959V31.5996C40.6309 32.6787 39.7568 33.5527 38.6777 33.5527Z" fill="#63271D"/>
<path d="M38.1416 104.301C58.1279 104.301 74.3301 88.0261 74.3301 67.9502C74.3301 47.8743 58.1279 31.5996 38.1416 31.5996C18.1553 31.5996 1.95312 47.8743 1.95312 67.9502C1.95312 88.0261 18.1553 104.301 38.1416 104.301Z" fill="#F87302"/>
<path d="M20.1172 67.9502C20.1172 51.0254 31.6328 36.8027 47.2236 32.7549C44.3213 32.001 41.2783 31.5996 38.1416 31.5996C18.1553 31.5996 1.95312 47.874 1.95312 67.9502C1.95312 88.0264 18.1553 104.301 38.1416 104.301C41.2783 104.301 44.3213 103.899 47.2236 103.146C31.6328 99.0977 20.1172 84.875 20.1172 67.9502Z" fill="#FF7B22"/>
<path d="M12.0439 67.9502C12.0439 49.5957 25.5898 34.4268 43.1865 31.959C41.5371 31.7275 39.8545 31.5996 38.1406 31.5996C18.1553 31.5996 1.95312 47.874 1.95312 67.9502C1.95312 88.0264 18.1553 104.301 38.1416 104.301C39.8545 104.301 41.5371 104.173 43.1875 103.941C25.5908 101.474 12.0439 86.3047 12.0439 67.9502Z" fill="#FC7F10"/>
<path d="M14.4521 77.6143C13.5518 77.6143 12.7422 76.9873 12.5449 76.0713C11.9746 73.4199 11.6855 70.6875 11.6855 67.9512C11.6855 60.7949 13.6641 53.8144 17.4062 47.7646C17.9736 46.8486 19.1768 46.5635 20.0947 47.1318C21.0117 47.6992 21.2949 48.9023 20.7275 49.8203C17.3672 55.2529 15.5908 61.5215 15.5908 67.9512C15.5908 70.4131 15.8506 72.8682 16.3633 75.251C16.5898 76.3057 15.9189 77.3447 14.8643 77.5703C14.7266 77.5996 14.5879 77.6143 14.4521 77.6143Z" fill="#F9DCC7"/>
<path d="M16.7578 83.3398C16.25 83.3398 15.7422 83.1348 15.3809 82.7637C15.0195 82.4023 14.8047 81.9043 14.8047 81.3867C14.8047 81.2598 14.8242 81.1328 14.8437 81.0059C14.873 80.8789 14.9121 80.7617 14.9609 80.6445C15.0098 80.5273 15.0684 80.4102 15.1367 80.3027C15.2051 80.1953 15.293 80.0977 15.3809 80.0098C15.4688 79.9121 15.5664 79.834 15.6738 79.7656C15.7812 79.6973 15.8984 79.6289 16.0156 79.5801C16.1328 79.5312 16.2598 79.502 16.377 79.4727C17.0117 79.3457 17.6855 79.5508 18.1445 80.0098C18.2324 80.0977 18.3105 80.1953 18.3887 80.3027C18.457 80.4102 18.5156 80.5273 18.5645 80.6445C18.6133 80.7617 18.6523 80.8789 18.6719 81.0059C18.7012 81.1328 18.7109 81.2598 18.7109 81.3867C18.7109 81.9043 18.5059 82.4023 18.1445 82.7637C17.7832 83.1348 17.2754 83.3398 16.7578 83.3398Z" fill="#F9DCC7"/>
<path d="M86.6592 123.047C106.756 123.047 123.047 106.714 123.047 86.5664C123.047 66.4188 106.756 50.0859 86.6592 50.0859C66.5628 50.0859 50.2715 66.4188 50.2715 86.5664C50.2715 106.714 66.5628 123.047 86.6592 123.047Z" fill="#F8A200"/>
<path d="M86.6582 120.02C68.2627 120.02 53.2979 105.013 53.2979 86.5674C53.2979 68.1221 68.2627 53.1143 86.6582 53.1143C105.054 53.1143 120.02 68.1211 120.02 86.5674C120.02 105.014 105.054 120.02 86.6582 120.02Z" fill="#F8DC91"/>
<path d="M86.6582 116.992C69.9326 116.992 56.3252 103.344 56.3252 86.5674C56.3252 69.79 69.9326 56.1416 86.6582 56.1416C103.384 56.1416 116.992 69.79 116.992 86.5674C116.992 103.344 103.385 116.992 86.6582 116.992Z" fill="#FC7F10"/>
<path d="M86.6592 86.5664L79.4531 64.5879C78.5918 61.9609 80.0615 59.1455 82.7344 58.2998L82.7676 58.2891C85.3115 57.4844 88.0488 57.4863 90.5918 58.2949C93.2607 59.1436 94.7256 61.957 93.8652 64.5801L86.6592 86.5664Z" fill="#F87302"/>
<path d="M86.6591 86.5664L63.4531 81.6358C60.6796 81.0469 58.9033 78.4033 59.4853 75.7324L59.4921 75.6992C60.0459 73.1572 61.417 70.8564 63.4091 69.1221C65.5009 67.3018 68.7422 67.4766 70.6523 69.5117L86.6591 86.5664Z" fill="#F87302"/>
<path d="M86.6592 86.5664L70.6592 103.615C68.7471 105.652 65.5019 105.825 63.4111 104L63.3847 103.978C61.3945 102.24 60.0273 99.9375 59.4775 97.3945C58.9004 94.7256 60.6767 92.0879 63.4463 91.499L86.6592 86.5664Z" fill="#F87302"/>
<path d="M86.6592 86.5664L93.8642 108.546C94.7256 111.173 93.2558 113.988 90.583 114.834L90.5498 114.845C88.0058 115.649 85.2685 115.647 82.7256 114.839C80.0566 113.99 78.5918 111.177 79.4521 108.554L86.6592 86.5664Z" fill="#F87302"/>
<path d="M86.6592 86.5664L109.865 91.4971C112.639 92.0859 114.415 94.7295 113.833 97.4004L113.826 97.4336C113.272 99.9756 111.901 102.276 109.909 104.011C107.817 105.831 104.576 105.656 102.666 103.621L86.6592 86.5664Z" fill="#F87302"/>
<path d="M86.6592 86.5664L102.659 69.5176C104.571 67.4805 107.816 67.3076 109.907 69.1328L109.934 69.1553C111.924 70.8926 113.291 73.1953 113.841 75.7383C114.418 78.4072 112.642 81.0449 109.872 81.6338L86.6592 86.5664Z" fill="#F87302"/>
<path d="M86.6572 66.8447C85.5791 66.8447 84.7041 65.9697 84.7041 64.8916V60.7148C84.7041 59.6367 85.5791 58.7617 86.6572 58.7617C87.7354 58.7617 88.6104 59.6367 88.6104 60.7148V64.8916C88.6104 65.9707 87.7363 66.8447 86.6572 66.8447Z" fill="white"/>
<path d="M67.8174 78.1885C67.4922 78.1885 67.1621 78.1074 66.8584 77.9355L63.1611 75.8467C62.2227 75.3164 61.8906 74.125 62.4219 73.1855C62.9522 72.2461 64.1436 71.915 65.083 72.4463L68.7803 74.5352C69.7188 75.0654 70.0508 76.2568 69.5195 77.1963C69.1602 77.8311 68.499 78.1885 67.8174 78.1885Z" fill="white"/>
<path d="M63.1162 100.942C62.4345 100.942 61.7724 100.585 61.4131 99.9492C60.8828 99.0098 61.2138 97.8184 62.1533 97.2881L65.8506 95.2002C66.791 94.6709 67.9814 95.001 68.5117 95.9404C69.042 96.8799 68.7109 98.0713 67.7715 98.6016L64.0742 100.689C63.7714 100.861 63.4414 100.942 63.1162 100.942Z" fill="white"/>
<path d="M86.6602 114.372C85.582 114.372 84.707 113.497 84.707 112.419V108.242C84.707 107.164 85.582 106.289 86.6602 106.289C87.7383 106.289 88.6133 107.164 88.6133 108.242V112.419C88.6133 113.497 87.7383 114.372 86.6602 114.372Z" fill="white"/>
<path d="M110.203 100.94C109.878 100.94 109.548 100.859 109.244 100.687L105.547 98.5986C104.608 98.0684 104.276 96.877 104.808 95.9375C105.338 94.999 106.529 94.667 107.469 95.1982L111.166 97.2871C112.104 97.8174 112.436 99.0088 111.905 99.9482C111.546 100.584 110.884 100.94 110.203 100.94Z" fill="white"/>
<path d="M106.508 78.1865C105.826 78.1865 105.165 77.8291 104.806 77.1934C104.275 76.2539 104.606 75.0625 105.545 74.5322L109.242 72.4434C110.183 71.9111 111.373 72.2442 111.903 73.1826C112.434 74.1221 112.103 75.3135 111.164 75.8438L107.467 77.9326C107.163 78.1045 106.833 78.1865 106.508 78.1865Z" fill="white"/>
<path d="M86.6592 94.9043C91.2452 94.9043 94.9629 91.1713 94.9629 86.5664C94.9629 81.9615 91.2452 78.2285 86.6592 78.2285C82.0732 78.2285 78.3555 81.9615 78.3555 86.5664C78.3555 91.1713 82.0732 94.9043 86.6592 94.9043Z" fill="#F5D7D5"/>
</svg>
